<svg xmlns="http://www.w3.org/2000/svg" xmlns:xlink="http://www.w3.org/1999/xlink" version="1.1" x="0px" y="0px" width="100%" height="100%" viewBox="0 0 499.456 499.449" enable-background="new 0 0 499.456 499.449" xml:space="preserve"><style>.style0{stroke:	#FFEE49;stroke-width:	0.144;fill:	#FFEE49;}.style1{fill:	#FFFFFF;}</style><path d="M198.403 46.642c0 0-1.924 6.889-12.042 6.4 c0 9.3 0 12.8 0 12.794s10.118 1 13.493-5.418C203.219 54 198.4 46.6 198.4 46.642z" class="style0"/><path d="M147.922 97.885c0 0-5.179-6.404-11.977-3.902 c-6.79 2.502-6.52 5.28-9.792 6.121c-3.264 0.826-8.708 0.276-9.81-1.389c0 0 7.9 9.2 15.5 4.4 C139.484 98.4 140.6 94.8 147.9 97.885z" class="style0"/><path d="M158.639 212.239c0 0 9.4 10.8 14.3 14.1 c0 0 4.9 10.5 4.7 16.327c-0.183 5.807-0.543 11.255-5.623 20.685c-5.085 9.417-7.734 9.702-7.734 9.7 s-3.587-2.605-7.685-2.084c0 0 12.333-7.273 10.515-19.584c-1.814-12.35-6.354-11.613-8.694-23.59 C156.055 215.8 156.8 217.2 158.6 212.239z" class="style0"/><path d="M149.436 275.68c0 0-20.844 0.928-21.012 16.3 c0 0 5.6 0.7 16.1 0.742C144.548 292.7 138.9 283.3 149.4 275.68z" class="style0"/><path d="M299.687 220.918c-2.183-2.461-4.465-4.989-7.101-7.48 c-10.353-9.755-18.203-12.02-35.092-10.101c-10.398 1.178-17.576 4.378-23.945 7.21c-3.35 1.493-6.507 2.896-9.76 3.8 c-7.756 2.213-11.209-2.763-13.176-5.524c-0.203 0.043-1.818 0.017-2.006 0.054c0 0-4.092 1.803-2.146 3.8 c1.946 2 8.7 11.2 24.9 8.934c9.093-1.245 42.584-6.415 42.584-6.415s-14.878 5.558-8.868 22.2 c1.876 5.1 12.3 10 16.5 16.006c4.168 6 3.3 14 0.9 17.453c-2.398 3.451-9.658 5.734-9.658 5.7 s-9.603-4.268-16.35 3.627c-6.746 7.877-2.895 12.3 0 12.303c2.878 0 21.211-0.492 25.05-0.492c3.849 0 6.264-1.957 8.196-4.434 c1.906-2.463 2.891-11.324 2.891-11.324s5.279 2.5 5.3 5.406c1.458-4.41 0.492-5.902 0-10.319 c-0.47-4.443 0.958-8.86 3.391-11.324c2.39-2.465 7.222-2.959 8.671-5.905c1.437-2.955-0.975-2.461-2.416-3.447 c-1.449-0.988-4.797-3.936-3.382-6.399c1.458-2.463 6.851-4.29 7.329-7.734c0.194-1.409 0.647-1.747 1.092-3.526 C307.124 229.2 303.4 225 299.7 220.918z M377.278 245.28c0.479-2.463 7.855-5.021 7.855-5.021s-2.355-6.982-4.763-8.951 c-2.407-1.978-6.949-0.306-9.835-3.252c-2.886-2.957-13.476-7.883-14.926-33.002c-1.432-25.108-0.768-23.967-0.768-23.967 s25.813-14.932 24.852-44.959c-0.971-30.045-37.076-27.578-49.621-18.715c-12.51 8.86-42.869 24.614-52.977-3.451 c-3.378-8.366 12.531-12.803 12.531-12.803s8.662 0.5 13.484-3.932c4.814-4.45 1.924-5.424 5.772-6.902 c3.852-1.473 7.722-0.499 12.526-5.405c4.823-4.939 6.264-14.285 6.264-14.285s-4.34 7.381-10.111 6.9 c-5.789-0.479-14.917-5.908-21.681-3.932c-6.746 1.967-9.153 4.43-12.035 9.356c-2.895 4.926-2.416 6.403-5.798 8.9 c-3.364 2.469-24.083 31 9.6 45.794c22.164 6.9 40.946-8.369 45.76-11.324c4.814-2.953 9.624-5.908 18.8-5.908 c9.119 0 18.8 6.4 19.2 15.262c0.474 8.854-5.781 20.186-19.758 23.143c-2.881 0-7.678 1.469-7.678 1.5 s-8.188-10.825-43.854-2.946c-35.636 7.877-71.756 12.808-80.919-15.266c-2.409-25.11 16.2 2.7 16.2 2.7 s-0.569-24.869-8.483-24.869c-4.426 0-9.644-3.934-9.644-3.934s0.969-4.933 3.397-4.933c2.39 0 8.6 7 8.6 7 s1.894-18.888-5.332-23.324c-3.913-2.392-5.677-5.049-6.488-6.978c2.705-0.397 5.875-1.294 8.017-3.257 c4.825-4.432 7.221-9.352 7.7-14.77c0.487-5.41-1.434-2.457-4.81-0.49c-3.372 1.976-9.644 2.955-14.449 3 c-4.829 0-10.124-1.967-10.124-1.967s-3.369 4.428-7.23 5.412c-3.85 0.988-13.012 0.494-19.746 0 c-6.742-0.492-10.607-3.943-15.404-2.463c-4.825 1.479-6.276 4.926-12.525 6.406c-6.266 1.482-8.679 0-13.006-0.499 c-4.342-0.487-9.639-0.487-10.592 2.955c-0.985 3.444-2.418 7.875-0.985 12.32c1.44 4.4 2.4 5.9 9.6 5.4 c7.213-0.479 15.4 0 18.8 4.428c3.369 4.4 3.4 9.4 2.4 12.307c-0.958 2.966-7.223 1.848-10.599 1.4 c-3.371-0.496-8.168-2.459-10.094 0.986c-1.945 3.436-3.858 14.3 2.9 11.811c6.738-2.457 24.092-1.333 26.488-1.333 c2.4 0 2.4 0 2.4 0s-24.556 18.333-24.09 41.474c0 35 30.8 57.5 30.8 57.504s-5.295-16.25-4.337-30.535 c0.971-14.28 7.707-20.671 7.707-20.671s-5.284 16.237-0.477 37.905c4.814 21.7 10.6 39.4 4.8 53.2 c-5.768 13.789-10.508 19.095-13.884 19.095c-3.384 0-8.744-2.352-11.651-0.881c-2.871 1.488-5.785 5.41-5.785 8.9 c0 3.445-0.962 7.9 2.9 7.889c3.839 0 13.476-0.5 18.29-0.5c4.81 0 9.151-0.984 12.525-3.441 c3.391-2.465 4.821-13.305 4.821-13.305s3.854 1 3.9 3.443l1.933-6.394c-0.975-3.435-0.494-4.927 2.4-10.327 c2.891-5.422 3.354-5.422 7.705-9.842c4.337-4.441-2.899-3.455-2.899-8.871c0-5.412 1.939-7.375 4.337-12.799 c2.42-5.42-0.481-4.424-2.398-5.903c-1.939-1.479 1.126-2.448 1.454-5.92c0.587-6.466-7.305-11.05-7.305-11.05 c16.877-2.785 17.941-8.901 17.941-8.901c-21.517-5.763-20.589-23.042-20.589-23.042c21.221 1.7 27.246-8.89 27.246-8.89 c-11.444 2.217-16.688-10.674-16.688-10.674c3.263-3.337 1.827-12.894 1.827-12.894c-7.623-16.142-23.601-4.909-23.601-4.909 c4.363-10.021 21.239-9.46 26.7 1.102c5.439 10.6 1 15.9 1 15.853c5.439 10 18.6 7.5 18.6 7.5 c-10.893 21.702-28.32 17.602-28.32 17.602c5.451 15.6 19.6 13 19.6 13.001c-0.268 8.293-3.054 11.718-6.192 13.3 c1.449 1 3.9 1.9 7.9 0.763c2.916-0.85 5.951-2.185 9.134-3.612c6.671-2.977 14.229-6.337 25.354-7.597 c12.782-1.454 21.09-0.602 28.8 3.699c0.501-1.585 1.42-4.167 0.108-6.779c-0.976-1.948-1.804-4.079 0.366-2.959l1.773 1.9 c0 0 5 6.8 6.1 13.912c0.595 0.5 1.2 1.1 1.8 1.613c2.786 2.6 5.1 5.2 7.4 7.8 c4.146 4.6 8.1 9 14.3 12.933c1.812 1.1 4.3 2.5 7.5 4.139c7.713 3.9 19.5 1.9 25.7 4.9 c6.255 3 11.5 12.3 14.4 19.198c2.881 6.9 2.9 12.8 1 16.737c-1.929 3.947-2.903 6.406-5.306 6.4 c-2.416 0-3.848-1.967-7.713-1.967c-3.822 0-5.772 1.967-7.204 5.41c-1.441 3.434-1.441 9.9 0.5 9.9 c1.919 0 24.07-1.977 26.956-1.977c2.895 0 4.831-3.441 5.302-6.9c0.505-3.434 0-7.869 0-10.328c0-2.463 4.8 1.5 4.8 1.5 s0.953-6.385-1.445-13.277C379.694 255.6 376.8 247.7 377.3 245.28z M181.541 83.958c-4.325 0.496-7.224 1.475-9.146-0.494 c-1.928-1.98-2.405-3.446-4.82-3.446c-2.414 0-4.818-0.499-4.818-0.499s0.975-0.973 5.308-2.948c0 0 9.6 1 13.5 1.5 c3.85 0.5 5.3 1 5.3 0.971S185.878 83.5 181.5 83.958z" class="style0"/><g><path d="M59.614 369.156c0 1.764-0.289 3.32-0.864 4.671c-0.576 1.35-1.377 2.483-2.403 3.4 s-2.25 1.611-3.672 2.079c-1.423 0.469-2.979 0.702-4.671 0.702H32.452v-38.448H47.41c3.6 0 6.4 0.9 8.5 2.8 c2.07 1.9 3.1 4.4 3.1 7.722c0 1.045-0.153 2.007-0.459 2.889c-0.306 0.883-0.702 1.674-1.188 2.4 c-0.486 0.702-1.035 1.296-1.647 1.782c-0.612 0.486-1.242 0.855-1.89 1.107c0.756 0.3 1.5 0.7 2.2 1.2 c0.684 0.5 1.3 1.1 1.8 1.863s0.972 1.6 1.3 2.537C59.452 366.8 59.6 367.9 59.6 369.156z M53.188 352.3 c0-1.8-0.576-3.167-1.728-4.104c-1.152-0.937-2.665-1.404-4.536-1.404h-8.64v11.016h8.64c1.871 0 3.383-0.467 4.536-1.403 C52.612 355.5 53.2 354.1 53.2 352.308z M53.782 368.886c0-1.728-0.54-3.132-1.62-4.212s-2.646-1.62-4.698-1.62h-9.18 v11.718h9.18c2.052 0 3.618-0.548 4.698-1.646C53.242 372 53.8 370.6 53.8 368.886z" class="style1"/><path d="M67.174 380.01v-38.448h5.832v38.448H67.174z" class="style1"/><path d="M103.191 380.01l-8.1-16.2h-7.29v16.2h-5.832v-38.448h14.904c1.836 0 3.5 0.3 4.9 0.8 c1.458 0.6 2.7 1.3 3.8 2.322c1.043 1 1.8 2.2 2.4 3.564c0.558 1.4 0.8 2.9 0.8 4.5 c0 2.772-0.738 5.014-2.214 6.723c-1.477 1.71-3.294 2.871-5.454 3.483l8.856 17.01H103.191z M102.975 352.8 c0-1.907-0.603-3.393-1.809-4.455c-1.207-1.062-2.781-1.593-4.725-1.593h-8.64v12.042h8.64c1.944 0 3.518-0.521 4.725-1.566 C102.372 356.2 103 354.8 103 352.848z" class="style1"/><path d="M144.339 380.01v-25.704l-8.856 18.738h-4.32l-9.072-18.738v25.704h-5.832v-38.448h5.832l11.232 23.9 l11.016-23.922h5.832v38.448H144.339z" class="style1"/><path d="M159.081 380.01v-38.448h5.832v38.448H159.081z" class="style1"/><path d="M197.474 380.01l-17.766-27.054v27.054h-5.832v-38.448h5.346l17.766 27v-27h5.832v38.448H197.474z" class="style1"/><path d="M238.244 365.105c0 2.484-0.262 4.572-0.783 6.265c-0.522 1.692-1.413 3.222-2.673 4.6 c-1.477 1.548-3.097 2.664-4.86 3.348c-1.764 0.685-3.672 1.026-5.724 1.026c-2.017 0-3.87-0.352-5.562-1.053 c-1.692-0.702-3.205-1.719-4.536-3.052c-0.937-0.936-1.657-1.925-2.16-2.97c-0.505-1.044-0.874-2.178-1.107-3.402 c-0.235-1.223-0.37-2.582-0.405-4.076c-0.036-1.494-0.054-3.159-0.054-4.995s0.018-3.501 0.054-4.995 c0.036-1.494 0.17-2.853 0.405-4.077c0.233-1.224 0.602-2.357 1.107-3.402c0.503-1.044 1.223-2.033 2.16-2.97 c1.331-1.331 2.835-2.349 4.509-3.051s3.537-1.054 5.589-1.054c2.052 0 3.9 0.3 5.5 0.9 c1.602 0.6 3 1.5 4.2 2.565c1.169 1.1 2.1 2.3 2.8 3.779c0.72 1.4 1.2 3 1.5 4.645h-5.886 c-0.504-2.124-1.44-3.771-2.808-4.941c-1.369-1.169-3.132-1.755-5.292-1.755c-1.152 0-2.214 0.216-3.186 0.6 c-0.972 0.432-1.8 1.008-2.484 1.728c-0.468 0.505-0.855 1.053-1.161 1.647c-0.306 0.594-0.54 1.332-0.702 2.2 c-0.162 0.883-0.279 1.963-0.351 3.24c-0.073 1.278-0.108 2.889-0.108 4.833c0 1.9 0 3.6 0.1 4.9 c0.072 1.3 0.2 2.4 0.4 3.268c0.162 0.9 0.4 1.6 0.7 2.214c0.306 0.6 0.7 1.1 1.2 1.6 c0.684 0.7 1.5 1.3 2.5 1.701c0.972 0.4 2 0.6 3.2 0.621c1.26 0 2.43-0.233 3.51-0.702 c1.08-0.467 1.998-1.134 2.754-1.998c0.72-0.827 1.223-1.728 1.512-2.7c0.288-0.972 0.432-2.087 0.432-3.348v-2.16h-8.208v-4.968 h14.041V365.105z" class="style1"/><path d="M267.187 380.01v-16.794h-15.606v16.794h-5.831v-38.448h5.831v16.416h15.606v-16.416h5.832v38.448H267.187z " class="style1"/><path d="M304.069 380.01l-2.646-7.722h-15.174l-2.646 7.722h-6.21l14.095-38.448h4.697l14.095 38.448H304.069z M293.97 350.256l-5.994 17.063h11.826L293.97 350.256z" class="style1"/><path d="M342.732 380.01v-25.704l-8.855 18.738h-4.32l-9.072-18.738v25.704h-5.831v-38.448h5.831l11.232 23.9 l11.016-23.922h5.832v38.448H342.732z" class="style1"/><path d="M395.49 368.508c-0.324 1.908-0.892 3.601-1.701 5.076c-0.81 1.477-1.818 2.719-3.024 3.7 c-1.206 1.009-2.574 1.765-4.104 2.269c-1.53 0.503-3.159 0.756-4.887 0.756c-2.017 0-3.871-0.352-5.563-1.053 c-1.692-0.702-3.204-1.719-4.536-3.052c-0.937-0.936-1.656-1.925-2.16-2.97c-0.504-1.044-0.873-2.178-1.106-3.402 c-0.234-1.223-0.37-2.582-0.405-4.076c-0.036-1.494-0.054-3.159-0.054-4.995s0.018-3.501 0.054-4.995 c0.035-1.494 0.171-2.853 0.405-4.077c0.233-1.224 0.603-2.357 1.106-3.402c0.504-1.044 1.224-2.033 2.16-2.97 c1.332-1.331 2.844-2.349 4.536-3.051c1.691-0.702 3.546-1.054 5.563-1.054c3.563 0 6.6 1 9 3 c2.448 2 4 5 4.7 8.802h-5.94c-0.468-1.943-1.342-3.527-2.619-4.752c-1.278-1.224-2.997-1.836-5.156-1.836 c-1.153 0-2.215 0.208-3.187 0.621c-0.972 0.414-1.801 0.981-2.483 1.701c-0.469 0.505-0.856 1.053-1.161 1.6 c-0.307 0.595-0.54 1.333-0.702 2.215s-0.279 1.971-0.352 3.267s-0.107 2.916-0.107 4.86c0 1.9 0 3.6 0.1 4.9 s0.189 2.4 0.4 3.268s0.396 1.6 0.7 2.214c0.305 0.6 0.7 1.1 1.2 1.646c0.683 0.7 1.5 1.3 2.5 1.7 c0.972 0.4 2 0.6 3.2 0.621c2.159 0 3.888-0.611 5.184-1.836c1.296-1.224 2.178-2.808 2.646-4.752H395.49z" class="style1"/><path d="M402.185 380.01v-38.448h5.831v38.448H402.185z" class="style1"/><path d="M429.995 346.8v33.21h-5.832V346.8h-10.584v-5.238h27v5.238H429.995z" class="style1"/><path d="M458.721 364.188v15.822h-5.831v-15.822l-11.503-22.626h6.372l8.047 16.902l8.046-16.902h6.372 L458.721 364.188z" class="style1"/><path d="M165.183 429.05c0 1.98-0.351 3.789-1.053 5.427c-0.702 1.639-1.674 3.033-2.916 4.2 c-1.242 1.152-2.709 2.052-4.401 2.699c-1.692 0.648-3.51 0.973-5.454 0.973c-1.944 0-3.763-0.324-5.454-0.973 c-1.693-0.647-3.151-1.547-4.374-2.699c-1.225-1.152-2.187-2.547-2.889-4.186c-0.702-1.638-1.053-3.446-1.053-5.427v-25.488h5.832 v25.218c0 2.6 0.7 4.6 2.2 6.103c1.439 1.5 3.4 2.2 5.8 2.214c2.411 0 4.347-0.737 5.805-2.214 c1.458-1.476 2.187-3.51 2.187-6.103v-25.218h5.832V429.05z" class="style1"/><path d="M190.67 442.01v-16.686c0-2.124-0.532-3.673-1.593-4.645c-1.062-0.972-2.367-1.458-3.915-1.458 s-2.88 0.495-3.996 1.485c-1.116 0.99-1.674 2.529-1.674 4.617v16.686h-5.508v-27.378h5.4v2.754 c0.936-1.044 2.043-1.817 3.321-2.322c1.277-0.504 2.6-0.756 3.969-0.756c1.404 0 2.7 0.2 3.8 0.6 c1.134 0.4 2.1 1 2.9 1.836c1.044 1 1.8 2.2 2.2 3.482c0.396 1.3 0.6 2.7 0.6 4.239v17.496H190.67z" class="style1"/><path d="M204.494 409.231v-5.832h5.832v5.832H204.494z M204.656 442.01v-27.378h5.508v27.378H204.656z" class="style1"/><path d="M229.495 442.01h-4.482l-10.044-27.378h5.832l6.48 19.278l6.426-19.278h5.833L229.495 442.01z" class="style1"/><path d="M247.855 429.914c0 2.4 0.6 4.2 1.8 5.615c1.188 1.4 2.9 2.1 5.2 2.1 c1.548 0 2.799-0.225 3.753-0.675s1.917-1.161 2.89-2.134l3.51 3.294c-0.721 0.721-1.431 1.342-2.133 1.9 c-0.702 0.522-1.458 0.964-2.269 1.323c-0.81 0.36-1.692 0.63-2.646 0.81c-0.954 0.18-2.025 0.271-3.213 0.3 c-1.729 0-3.34-0.243-4.833-0.729c-1.494-0.485-2.79-1.277-3.889-2.376c-1.098-1.098-1.971-2.546-2.618-4.347 c-0.648-1.8-0.973-3.996-0.973-6.588c0-4.464 1.054-7.911 3.159-10.341c2.106-2.431 4.923-3.646 8.451-3.646 c1.836 0 3.5 0.3 4.9 0.972c1.439 0.6 2.7 1.5 3.6 2.7c0.99 1.2 1.7 2.5 2.3 4.2 c0.521 1.6 0.8 3.4 0.8 5.346v2.431H247.855z M260.167 426.08c-0.036-0.828-0.1-1.503-0.189-2.025 c-0.09-0.521-0.279-1.088-0.566-1.701c-0.433-1.044-1.117-1.881-2.053-2.511c-0.937-0.63-2.052-0.945-3.348-0.945 s-2.422 0.315-3.375 0.945c-0.954 0.63-1.647 1.467-2.079 2.511c-0.288 0.613-0.468 1.18-0.54 1.7 c-0.072 0.522-0.127 1.197-0.162 2.025H260.167z" class="style1"/><path d="M287.977 421.058c-0.613-0.611-1.216-1.07-1.81-1.377c-0.594-0.306-1.359-0.459-2.295-0.459 c-1.512 0-2.8 0.55-3.861 1.647c-1.062 1.099-1.593 2.601-1.593 4.509v16.632h-5.508v-27.378h5.4v2.97 c0.72-0.972 1.728-1.764 3.023-2.376c1.296-0.611 2.718-0.918 4.267-0.918c1.331 0 2.5 0.2 3.6 0.6 c1.044 0.4 2 1.1 3 1.998L287.977 421.058z" class="style1"/><path d="M316.327 433.64c0 1.44-0.289 2.7-0.864 3.78c-0.576 1.08-1.368 1.989-2.376 2.7 c-1.008 0.738-2.214 1.288-3.618 1.647c-1.403 0.359-2.916 0.54-4.535 0.54c-2.233 0-4.303-0.262-6.211-0.783 s-3.672-1.574-5.292-3.159l3.618-3.618c1.116 1.2 2.4 1.9 3.8 2.295s2.763 0.6 4.1 0.6 c1.691 0 3.113-0.306 4.266-0.918c1.151-0.611 1.728-1.566 1.728-2.862c0-0.936-0.279-1.683-0.837-2.24 c-0.559-0.559-1.503-0.892-2.835-0.999l-4.374-0.379c-2.592-0.216-4.59-0.926-5.994-2.133c-1.403-1.205-2.105-3.015-2.105-5.427 c0-1.331 0.27-2.52 0.81-3.564c0.54-1.043 1.277-1.917 2.214-2.618c0.937-0.702 2.025-1.242 3.268-1.62s2.583-0.567 4.022-0.567 c2.053 0 3.9 0.2 5.7 0.702c1.729 0.5 3.2 1.3 4.5 2.376l-3.456 3.51c-0.864-0.72-1.882-1.232-3.051-1.539 c-1.17-0.305-2.403-0.459-3.699-0.459c-1.656 0-2.898 0.324-3.726 0.973c-0.829 0.647-1.242 1.494-1.242 2.5 c0 0.8 0.3 1.5 0.8 2.078c0.521 0.6 1.5 0.9 3 1.054l4.319 0.378c2.592 0.2 4.6 0.9 6 2.2 C315.616 429.3 316.3 431.2 316.3 433.64z" class="style1"/><path d="M322.86 409.231v-5.832h5.832v5.832H322.86z M323.022 442.01v-27.378h5.508v27.378H323.022z" class="style1"/><path d="M345.432 442.01c-1.296 0-2.413-0.216-3.349-0.648c-0.937-0.432-1.71-0.999-2.321-1.7 c-0.613-0.702-1.072-1.513-1.377-2.431c-0.307-0.918-0.459-1.862-0.459-2.835V419.33h-3.133v-4.212h3.133v-8.316h5.508v8.316h5.292 v4.212h-5.292v14.796c0 1 0.2 1.8 0.7 2.349c0.486 0.6 1.3 0.8 2.3 0.837h2.269v4.698H345.432z" class="style1"/><path d="M364.332 447.464c-0.505 1.439-1.17 2.573-1.998 3.402c-0.756 0.756-1.62 1.277-2.592 1.6 s-1.98 0.432-3.024 0.432h-2.214v-4.968h1.404c1.151 0 1.998-0.207 2.538-0.621s1.007-1.18 1.403-2.295l1.513-4.266l-9.559-26.082 h5.832l6.534 19.278l6.372-19.278h5.886L364.332 447.464z" class="style1"/></g></svg>